<svg width="30" height="30" viewBox="0 0 30 30" fill="none" xmlns="http://www.w3.org/2000/svg">
<g clip-path="url(#clip0_7917_8740)">
<path fill-rule="evenodd" clip-rule="evenodd" d="M0.703666 3.36891C0 4.72352 0 6.50318 0 10.0625V19.9375C0 23.4968 0 25.2765 0.703666 26.6311C1.29664 27.7726 2.22739 28.7034 3.36891 29.2963C4.72352 30 6.50318 30 10.0625 30H19.9375C23.4968 30 25.2765 30 26.6311 29.2963C27.7726 28.7034 28.7034 27.7726 29.2963 26.6311C30 25.2765 30 23.4968 30 19.9375V10.0625C30 6.50318 30 4.72352 29.2963 3.36891C28.7034 2.22739 27.7726 1.29664 26.6311 0.703666C25.2765 0 23.4968 0 19.9375 0H10.0625C6.50318 0 4.72352 0 3.36891 0.703666C2.22739 1.29664 1.29664 2.22739 0.703666 3.36891ZM15.5088 18.5521C15.5088 20.379 14.156 21.5737 12.4873 21.5737C10.8185 21.5737 9.46573 20.2209 9.46573 18.5521C9.46573 17.0602 10.8553 15.6955 12.5379 15.7576C12.8682 15.7576 13.256 15.8362 13.4064 15.8894V12.4187C10.4173 11.8142 5.90424 14.2875 5.90424 18.5521C5.90424 21.5737 8.22935 25 12.4873 25C16.7452 25 19.1222 21.5737 19.1222 18.5521V11.6882C19.808 12.232 21.7785 13.2118 24.0957 13.2118V9.80437C21.3862 9.85897 18.9292 7.47153 19.1325 5H15.5088V18.5521Z" fill="white"/>
</g>
<defs>
<clipPath id="clip0_7917_8740">
<rect width="30" height="30" fill="white"/>
</clipPath>
</defs>
</svg>
